<?xml version="1.0" encoding="utf-8"?>
<!-- Generator: Adobe Illustrator 23.0.0, SVG Export Plug-In . SVG Version: 6.00 Build 0)  -->
<svg version="1.1" id="Layer_1" xmlns="http://www.w3.org/2000/svg" xmlns:xlink="http://www.w3.org/1999/xlink" x="0px" y="0px"
	 viewBox="0 0 34.2 34.2" style="enable-background:new 0 0 34.2 34.2;" xml:space="preserve">
<style type="text/css">
	.st0{fill:#FFFFFF;}
</style>
<g>
	<path class="st0" d="M15.3,7.8c0,2.4,0,4.9,0,7.3c0.1,0,0.2,0,0.2,0c0.9,0,1.8,0,2.7,0c0.3,0,0.6,0,0.9-0.1c1-0.1,1.7-0.7,1.9-1.7
		c0.3-1.3,0.3-2.7-0.1-4.1c-0.2-0.6-0.5-1-1.1-1.2c-0.4-0.2-0.8-0.3-1.3-0.3C17.4,7.7,16.3,7.7,15.3,7.8C15.4,7.8,15.3,7.8,15.3,7.8
		z"/>
	<path class="st0" d="M17.1,0C7.7,0,0,7.7,0,17.1c0,9.4,7.7,17.1,17.1,17.1c9.4,0,17.1-7.7,17.1-17.1C34.2,7.7,26.5,0,17.1,0z
		 M12.8,7.7c-0.1,0-0.2,0-0.3,0s-0.1-0.1-0.1-0.1s0,0,0-0.1c0.1,0,0.2,0,0.2,0c1.9,0,3.8,0,5.7,0c0.7,0,1.3,0,2,0.2
		c1.1,0.3,2,0.8,2.6,1.9c0.3,0.6,0.4,1.2,0.4,1.8c0,1.7-0.9,2.9-2.6,3.5c-0.8,0.3-1.5,0.4-2.3,0.4c-1,0-1.9,0-2.9,0
		c-0.1,0-0.1,0-0.2,0c0,1.5,0,2.9,0,4.3c0,0.4,0,0.9,0,1.3c0,0.5,0.3,0.7,0.7,0.7c0.3,0,0.7,0,1,0.1c0.1,0,0.1,0.1,0.2,0.1
		c-1.6,0-3.2,0-4.8,0c0-0.1,0-0.1,0.1-0.1s0.3,0,0.4-0.1c0.3-0.1,0.5-0.3,0.5-0.6c0-0.2,0-0.4,0-0.6c0-3.8,0-7.6,0-11.5
		c0-0.2,0-0.4,0-0.6C13.3,7.9,13.2,7.7,12.8,7.7z M20.7,27.8c-2.7,0-5.3,0-8,0c-0.4,0-0.6,0-0.6-0.2c-0.1-0.8-0.2-1.6-0.4-2.4
		c0.2,0,0.4,0,0.6,0c3.5,0.2,7.1,0.4,10.6,0.7c0.4,0,0.6,0.1,0.6,0.3c0.1,0.5,0.2,1,0.3,1.6C22.7,27.8,21.7,27.8,20.7,27.8z"/>
</g>
</svg>
