<svg id="Layer_1" data-name="Layer 1" xmlns="http://www.w3.org/2000/svg" viewBox="0 0 34.2 34.2"><title>submark-circle-black</title><path d="M15.3,7.8v7.3h2.9a2.77,2.77,0,0,0,.9-.1A2,2,0,0,0,21,13.3a8.17,8.17,0,0,0-.1-4.1A1.67,1.67,0,0,0,19.8,8a2.77,2.77,0,0,0-1.3-.3c-1.1,0-2.2,0-3.2.1Z"/><path d="M17.1,0A17.1,17.1,0,1,0,34.2,17.1,17.16,17.16,0,0,0,17.1,0ZM12.8,7.7h-.3a.1.1,0,0,1-.1-.1V7.5h5.9a6.8,6.8,0,0,1,2,.2,3.85,3.85,0,0,1,2.6,1.9,3.92,3.92,0,0,1,.4,1.8,3.51,3.51,0,0,1-2.6,3.5,6.2,6.2,0,0,1-2.3.4H15.3v5.6a.63.63,0,0,0,.7.7,3.4,3.4,0,0,1,1,.1c.1,0,.1.1.2.1H12.4c0-.1,0-.1.1-.1a.6.6,0,0,0,.4-.1.63.63,0,0,0,.5-.6V8.3C13.3,7.9,13.2,7.7,12.8,7.7Zm7.9,20.1h-8c-.4,0-.6,0-.6-.2a20,20,0,0,0-.4-2.4h.6c3.5.2,7.1.4,10.6.7q.6,0,.6.3c.1.5.2,1,.3,1.6Z"/></svg>