<?xml version="1.0" encoding="utf-8"?>
<!-- Generator: Adobe Illustrator 23.0.0, SVG Export Plug-In . SVG Version: 6.00 Build 0)  -->
<svg version="1.1" id="Layer_1" xmlns="http://www.w3.org/2000/svg" xmlns:xlink="http://www.w3.org/1999/xlink" x="0px" y="0px"
	 viewBox="0 0 34.2 34.2" style="enable-background:new 0 0 34.2 34.2;" xml:space="preserve">
<style type="text/css">
	.st0{fill:#F5EFEB;}
	.st1{fill:#EACCB7;}
</style>
<circle class="st0" cx="17.1" cy="17.1" r="17.1"/>
<path class="st1" d="M23.8,27.8c-1.1,0-2.1,0-3.1,0c-2.7,0-5.3,0-8,0c-0.4,0-0.6,0-0.6-0.2c-0.1-0.8-0.2-1.6-0.4-2.4
	c0.2,0,0.4,0,0.6,0c3.5,0.2,7.1,0.4,10.6,0.7c0.4,0,0.6,0.1,0.6,0.3C23.6,26.7,23.7,27.2,23.8,27.8z"/>
<path d="M15.3,15.3c0,1.5,0,2.9,0,4.3c0,0.4,0,0.9,0,1.3c0,0.5,0.3,0.7,0.7,0.7c0.3,0,0.7,0,1,0.1c0.1,0,0.1,0.1,0.2,0.1
	c0,0,0,0,0,0c-1.6,0-3.2,0-4.8,0c0-0.1,0-0.1,0.1-0.1c0.1,0,0.3,0,0.4-0.1c0.3-0.1,0.5-0.3,0.5-0.6c0-0.2,0-0.4,0-0.6
	c0-3.8,0-7.6,0-11.5c0-0.2,0-0.4,0-0.6c-0.1-0.4-0.2-0.6-0.6-0.6c-0.1,0-0.2,0-0.3,0c-0.1,0-0.1-0.1-0.1-0.1c0,0,0,0,0-0.1
	c0.1,0,0.2,0,0.2,0c1.9,0,3.8,0,5.7,0c0.7,0,1.3,0,2,0.2c1.1,0.3,2,0.8,2.6,1.9c0.3,0.6,0.4,1.2,0.4,1.8c0,1.7-0.9,2.9-2.6,3.5
	c-0.8,0.3-1.5,0.4-2.3,0.4c-1,0-1.9,0-2.9,0C15.4,15.3,15.4,15.3,15.3,15.3z M15.3,7.8c0,2.4,0,4.9,0,7.3c0.1,0,0.2,0,0.2,0
	c0.9,0,1.8,0,2.7,0c0.3,0,0.6,0,0.9-0.1c1-0.1,1.7-0.7,1.9-1.7c0.3-1.3,0.3-2.7-0.1-4.1c-0.2-0.6-0.5-1-1.1-1.2
	c-0.4-0.2-0.8-0.3-1.3-0.3c-1.1,0-2.2,0-3.3,0C15.4,7.8,15.3,7.8,15.3,7.8z"/>
</svg>
